<svg width="18" height="19" viewBox="0 0 18 19" fill="none" xmlns="http://www.w3.org/2000/svg">
<path d="M8.82722 9.33718C7.63609 9.33718 6.49356 8.87167 5.6513 8.04309C4.80893 7.2144 4.33569 6.09058 4.33569 4.91877C4.33569 3.74684 4.80889 2.62302 5.6513 1.79433C6.49353 0.965793 7.63605 0.500244 8.82722 0.500244C10.0184 0.500244 11.1609 0.965756 12.0031 1.79433C12.8455 2.62302 13.3188 3.74684 13.3188 4.91877C13.3174 6.09029 12.844 7.21338 12.0018 8.04178C11.1598 8.87006 10.0181 9.33601 8.82726 9.33714L8.82722 9.33718ZM8.82722 1.39544C7.87745 1.39544 6.96647 1.7666 6.29488 2.42742C5.62326 3.08813 5.24586 3.98417 5.24586 4.91862C5.24586 5.85296 5.62329 6.74914 6.29488 7.40982C6.9665 8.07053 7.87749 8.44165 8.82722 8.44165C9.77696 8.44165 10.688 8.07049 11.3596 7.40982C12.0312 6.74911 12.4086 5.85292 12.4086 4.91862C12.4073 3.98457 12.0296 3.08912 11.3582 2.4287C10.6869 1.76813 9.77666 1.39657 8.82718 1.39541L8.82722 1.39544Z" fill="#777777"/>
<path d="M17.074 18.0821H0.580155C0.349262 18.0821 0.162109 17.9155 0.162109 17.71V14.562C0.163306 13.3868 0.688095 12.2601 1.62151 11.4293C2.55492 10.5984 3.8205 10.1311 5.14044 10.1301H12.5138C13.8338 10.1311 15.0994 10.5984 16.0328 11.4293C16.9662 12.2602 17.491 13.3869 17.4922 14.562V17.7103V17.7101C17.4922 17.8088 17.448 17.9035 17.3696 17.9733C17.2913 18.0431 17.185 18.0823 17.0741 18.0823L17.074 18.0821ZM0.998031 17.3379H16.6558V14.5619C16.6547 13.5841 16.2179 12.6467 15.4414 11.9554C14.6648 11.2639 13.6118 10.8751 12.5135 10.8741H5.14014C4.04192 10.8751 2.98886 11.2639 2.21232 11.9554C1.43578 12.6467 0.998984 13.5841 0.997895 14.5619L0.998031 17.3379Z" fill="#777777"/>
</svg>
