<svg width="20" height="20" viewBox="0 0 20 20" fill="none" xmlns="http://www.w3.org/2000/svg">
<path d="M16.5887 18.909H3.67711C2.92581 18.9088 2.21218 18.6651 1.72419 18.2419C1.23624 17.8188 1.02271 17.2586 1.13983 16.7091L3.46411 5.8313H16.8017L19.1285 16.7091C19.2456 17.259 19.0318 17.8194 18.5433 18.2427C18.0548 18.6658 17.3405 18.9094 16.5887 18.909Z" stroke="#777777" stroke-linecap="round" stroke-linejoin="round"/>
<path d="M13.5978 7.62077V3.40836C13.5978 2.63581 13.2316 1.89507 12.58 1.34954C11.9285 0.804014 11.045 0.498392 10.1248 0.500253C9.20767 0.502579 8.32919 0.81007 7.6818 1.35514C7.03424 1.90035 6.67065 2.63862 6.67065 3.40838V7.62079" stroke="#777777" stroke-linecap="round" stroke-linejoin="round"/>
</svg>
