<svg width="17" height="18" viewBox="0 0 17 18" fill="none" xmlns="http://www.w3.org/2000/svg">
<path d="M8.50267 0.60501L8.93705 0.197747C8.69715 -0.0271787 8.30819 -0.0271787 8.06829 0.197747L8.50267 0.60501ZM1.13091 7.5165L0.696534 7.10924L0.516602 7.27793V7.5165H1.13091ZM15.8744 7.5165H16.4887V7.27793L16.3089 7.10924L15.8744 7.5165ZM16.3089 7.10924L8.93705 0.197747L8.06829 1.01227L15.44 7.92376L16.3089 7.10924ZM8.06829 0.197747L0.696534 7.10924L1.56529 7.92376L8.93705 1.01227L8.06829 0.197747ZM16.4887 15.5799V7.5165H15.2601V15.5799H16.4887ZM0.516602 7.5165V15.5799H1.74523V7.5165H0.516602ZM2.35954 17.3078H14.6458V16.1559H2.35954V17.3078ZM15.2601 15.5799C15.2601 15.898 14.985 16.1559 14.6458 16.1559V17.3078C15.6636 17.3078 16.4887 16.5342 16.4887 15.5799H15.2601ZM0.516602 15.5799C0.516602 16.5342 1.34171 17.3078 2.35954 17.3078V16.1559C2.02027 16.1559 1.74523 15.898 1.74523 15.5799H0.516602Z" fill="#777777"/>
<line x1="4.03491" y1="13.957" x2="12.9702" y2="13.9571" stroke="black" stroke-width="0.5"/>
</svg>
