<svg width="21" height="21" viewBox="0 0 21 21" fill="none" xmlns="http://www.w3.org/2000/svg">
<path d="M18.9067 18.1555L14.019 13.3132C15.1935 11.9163 15.7791 10.1246 15.6541 8.31084C15.5292 6.49705 14.7031 4.80081 13.3479 3.575C11.9927 2.34919 10.2126 1.68818 8.37795 1.72949C6.5433 1.77079 4.79536 2.51122 3.49773 3.79675C2.20011 5.08228 1.45271 6.81394 1.41102 8.63149C1.36933 10.449 2.03656 12.2125 3.2739 13.5551C4.51124 14.8977 6.22343 15.7161 8.05428 15.8399C9.88514 15.9637 11.6937 15.3835 13.1037 14.2199L17.9915 19.0622L18.9067 18.1555ZM2.72651 8.80332C2.72651 7.662 3.06813 6.54631 3.70818 5.59734C4.34822 4.64837 5.25795 3.90874 6.3223 3.47197C7.38666 3.03521 8.55785 2.92093 9.68777 3.14359C10.8177 3.36625 11.8556 3.91585 12.6702 4.72288C13.4848 5.52992 14.0396 6.55814 14.2644 7.67753C14.4891 8.79692 14.3738 9.95719 13.9329 11.0116C13.492 12.0661 12.7454 12.9673 11.7875 13.6014C10.8296 14.2355 9.70345 14.5739 8.55139 14.5739C7.00706 14.5722 5.52647 13.9637 4.43447 12.8819C3.34246 11.8 2.72822 10.3333 2.72651 8.80332Z" fill="#777777"/>
</svg>
